<?xml version="1.0" encoding="UTF-8" standalone="no"?>
<!DOCTYPE svg PUBLIC "-//W3C//DTD SVG 1.1//EN" "http://www.w3.org/Graphics/SVG/1.1/DTD/svg11.dtd">
<svg width="100%" height="100%" viewBox="0 0 800 401" version="1.1" xmlns="http://www.w3.org/2000/svg" xmlns:xlink="http://www.w3.org/1999/xlink" xml:space="preserve" xmlns:serif="http://www.serif.com/" style="fill-rule:evenodd;clip-rule:evenodd;stroke-linejoin:round;stroke-miterlimit:2;">
    <g transform="matrix(1,0,0,1,0,-2250)">
        <g id="control" transform="matrix(0.8,0,0,0.37037,0,2250.17)">
            <rect x="0" y="0" width="1000" height="1080" style="fill:none;"/>
            <clipPath id="_clip1">
                <rect x="0" y="0" width="1000" height="1080"/>
            </clipPath>
            <g clip-path="url(#_clip1)">
                <g transform="matrix(2.30333,0,0,4.9752,-3530.83,-7057.65)">
                    <circle cx="1750" cy="1494.97" r="194.973" style="fill:url(#_Radial2);"/>
                </g>
                <g transform="matrix(1.83813,0,0,3.97036,-2716.73,-5555.45)">
                    <circle cx="1750" cy="1494.97" r="194.973" style="fill:url(#_Radial3);"/>
                </g>
                <g transform="matrix(1.37831,0,0,2.97715,-1912.05,-4070.63)">
                    <circle cx="1750" cy="1494.97" r="194.973" style="fill:url(#_Radial4);"/>
                </g>
                <g transform="matrix(1.21462,0.637826,-0.29529,2.62358,-1135.23,-4655.4)">
                    <path d="M1760.31,1615.89C1762.89,1615.02 1781.39,1609 1801,1609C1812.32,1609 1826.57,1609.8 1839.43,1618.03C1858.08,1629.96 1954.53,1656.23 1978.27,1677.6C2044.05,1736.8 1976.4,1748.24 1931.56,1749.25C1931.56,1749.25 1829.6,1687 1807,1687C1792.4,1687 1775.87,1697 1744,1697C1700.13,1697 1635.75,1684.32 1627,1679C1618.25,1673.68 1578,1643.78 1578,1638C1578,1632.22 1584.07,1630 1590,1630C1605.71,1630 1616.85,1649.65 1633.78,1651.89C1655.63,1654.77 1675.99,1655.02 1682.69,1655.02C1683.94,1655.01 1684.72,1655 1684.94,1655C1685.56,1655.66 1686.22,1656.35 1686.94,1657.06C1688.72,1658.84 1693.14,1661.44 1698.48,1664.18C1710.56,1670.36 1727.42,1677.38 1727.42,1677.38L1728.58,1674.62C1728.58,1674.62 1711.84,1667.64 1699.85,1661.51C1694.87,1658.96 1690.72,1656.6 1689.06,1654.94C1682.31,1648.18 1680.11,1644.16 1678.18,1640.8C1676.8,1638.4 1675.54,1636.33 1673.04,1633.92C1668.76,1629.79 1662.47,1626.42 1658.11,1623.28C1656.79,1622.32 1655.65,1621.39 1654.85,1620.46C1654.26,1619.77 1653.85,1619.1 1653.85,1618.4C1653.85,1615.32 1655.72,1613.21 1658.88,1611.81C1662.51,1610.19 1667.71,1609.5 1674,1609.5C1686.42,1609.5 1690.9,1614.02 1693.94,1617.06C1696.39,1619.51 1698.34,1621.81 1701.62,1622.94C1717.45,1628.42 1735.49,1630.96 1735.49,1630.96C1735.88,1631.01 1736.28,1630.91 1736.6,1630.67C1742.99,1625.89 1751.68,1620.09 1760.31,1615.89ZM1682.69,1652.53C1682.64,1652.54 1682.59,1652.55 1682.54,1652.56C1681.69,1652.74 1677.77,1653.15 1676.76,1652.93C1671.99,1651.89 1665.45,1650.7 1658,1650C1650.85,1647.62 1641.77,1638.95 1636.35,1628.83C1626.45,1610.36 1611,1593.71 1611,1590C1611,1583.21 1615.89,1582 1620,1582C1627.11,1582 1640.75,1597.1 1645,1605C1647.71,1610.04 1651.12,1611.62 1653.23,1612.11C1651.67,1613.8 1650.85,1615.9 1650.85,1618.4C1650.85,1620.29 1652.1,1622.22 1654.28,1624.09C1658.41,1627.64 1666.04,1631.33 1670.96,1636.08C1673.21,1638.25 1674.33,1640.13 1675.58,1642.3C1677.12,1644.98 1678.82,1648.07 1682.69,1652.53ZM1664.58,1607.16C1659.45,1600.77 1638,1573.66 1638,1567C1638,1563.43 1642.43,1562 1646,1562C1655.54,1562 1678.27,1598.9 1690,1605C1692.33,1606.21 1695.06,1607.82 1697.79,1609.51L1713.49,1621.12C1713.94,1621.45 1714.55,1621.51 1715.05,1621.26C1722.6,1617.5 1731.26,1615.56 1741.19,1613.91L1754.7,1615.41C1747.59,1619.26 1740.69,1623.9 1735.3,1627.9C1732.07,1627.41 1716.47,1624.9 1702.6,1620.1C1699.78,1619.13 1698.17,1617.05 1696.06,1614.94C1692.69,1611.57 1687.75,1606.5 1674,1606.5C1670.53,1606.5 1667.37,1606.72 1664.58,1607.16ZM1696.17,1604.58C1694.41,1602.82 1692.92,1601.22 1692,1600C1684.59,1590.15 1673,1579.25 1673,1576C1673,1573.75 1676.64,1572 1681,1572C1689.36,1572 1699.66,1586.79 1703,1590C1706.03,1592.91 1728.2,1609.46 1732.3,1612.52C1725.81,1613.89 1719.91,1615.61 1714.54,1618.17C1714.54,1618.16 1703.28,1609.83 1696.17,1604.58Z" style="fill:url(#_Linear5);"/>
                    <path d="M1682.69,1652.53C1682.64,1652.54 1682.59,1652.55 1682.54,1652.56C1681.69,1652.74 1677.77,1653.15 1676.76,1652.93C1671.99,1651.89 1665.45,1650.7 1658,1650C1650.85,1647.62 1641.77,1638.95 1636.35,1628.83C1626.45,1610.36 1611,1593.71 1611,1590C1611,1583.21 1615.89,1582 1620,1582C1627.11,1582 1640.75,1597.1 1645,1605C1647.71,1610.04 1651.12,1611.62 1653.23,1612.11C1651.67,1613.8 1650.85,1615.9 1650.85,1618.4C1650.85,1620.29 1652.1,1622.22 1654.28,1624.09C1658.41,1627.64 1666.04,1631.33 1670.96,1636.08C1673.21,1638.25 1674.33,1640.13 1675.58,1642.3C1677.12,1644.98 1678.82,1648.07 1682.69,1652.53ZM1679.23,1651.15C1676.67,1647.89 1675.29,1645.41 1674.02,1643.2C1672.86,1641.17 1671.81,1639.41 1669.71,1637.38C1664.82,1632.65 1657.22,1628.99 1653.11,1625.46C1650.43,1623.16 1649.05,1620.71 1649.05,1618.4C1649.05,1616.37 1649.5,1614.58 1650.37,1613C1648.19,1611.95 1645.59,1609.9 1643.41,1605.85C1640.53,1600.49 1633.18,1591.71 1626.66,1586.92C1624.16,1585.09 1621.85,1583.8 1620,1583.8C1618,1583.8 1615.73,1584.04 1614.26,1585.52C1613.33,1586.46 1612.8,1587.89 1612.8,1590C1612.8,1590.26 1613,1590.6 1613.23,1591.06C1613.82,1592.2 1614.81,1593.7 1616.08,1595.5C1621.27,1602.87 1630.97,1614.97 1637.93,1627.98C1643.07,1637.57 1651.57,1645.86 1658.38,1648.23C1665.83,1648.94 1672.36,1650.12 1677.14,1651.17C1677.52,1651.25 1678.34,1651.22 1679.23,1651.15ZM1760.31,1615.89C1762.89,1615.02 1781.39,1609 1801,1609C1812.32,1609 1826.57,1609.8 1839.43,1618.03C1858.08,1629.96 1954.53,1656.23 1978.27,1677.6C2044.05,1736.8 1976.4,1748.24 1931.56,1749.25C1931.56,1749.25 1829.6,1687 1807,1687C1792.4,1687 1775.87,1697 1744,1697C1700.13,1697 1635.75,1684.32 1627,1679C1618.25,1673.68 1578,1643.78 1578,1638C1578,1632.22 1584.07,1630 1590,1630C1605.71,1630 1616.85,1649.65 1633.78,1651.89C1655.63,1654.77 1675.99,1655.02 1682.69,1655.02C1683.94,1655.01 1684.72,1655 1684.94,1655C1685.56,1655.66 1686.22,1656.35 1686.94,1657.06C1688.72,1658.84 1693.14,1661.44 1698.48,1664.18C1710.56,1670.36 1727.42,1677.38 1727.42,1677.38L1728.58,1674.62C1728.58,1674.62 1711.84,1667.64 1699.85,1661.51C1694.87,1658.96 1690.72,1656.6 1689.06,1654.94C1682.31,1648.18 1680.11,1644.16 1678.18,1640.8C1676.8,1638.4 1675.54,1636.33 1673.04,1633.92C1668.76,1629.79 1662.47,1626.42 1658.11,1623.28C1656.79,1622.32 1655.65,1621.39 1654.85,1620.46C1654.26,1619.77 1653.85,1619.1 1653.85,1618.4C1653.85,1615.32 1655.72,1613.21 1658.88,1611.81C1662.51,1610.19 1667.71,1609.5 1674,1609.5C1686.42,1609.5 1690.9,1614.02 1693.94,1617.06C1696.39,1619.51 1698.34,1621.81 1701.62,1622.94C1717.45,1628.42 1735.49,1630.96 1735.49,1630.96C1735.88,1631.01 1736.28,1630.91 1736.6,1630.67C1742.99,1625.89 1751.68,1620.09 1760.31,1615.89ZM1579.8,1637.96C1579.82,1638.01 1579.91,1638.27 1580,1638.44C1580.24,1638.87 1580.59,1639.37 1581.03,1639.92C1582.53,1641.82 1585.04,1644.29 1588.13,1647.06C1600.43,1658.09 1621.85,1673.76 1627.93,1677.46C1630.49,1679.02 1637.93,1681.16 1648.24,1683.48C1672.83,1689.01 1713.42,1695.2 1744,1695.2C1762.92,1695.2 1776.38,1691.63 1787.24,1688.78C1794.72,1686.81 1801.02,1685.2 1807,1685.2C1813.92,1685.2 1828.16,1690.82 1844.66,1698.83C1880.35,1716.14 1926.98,1744.36 1932.05,1747.44C1947.91,1747.05 1966.56,1745.36 1981.01,1740.65C1990.37,1737.6 1997.97,1733.34 2001.61,1727.18C2004.55,1722.23 2004.77,1716.07 2001.34,1708.42C1997.68,1700.26 1989.97,1690.55 1977.07,1678.93C1967.67,1670.48 1946.75,1661.3 1923.87,1652.51C1889.03,1639.13 1849.69,1626.73 1838.46,1619.55C1825.92,1611.53 1812.03,1610.8 1801,1610.8C1781.93,1610.8 1763.91,1616.58 1760.99,1617.56L1760.99,1617.56C1752.51,1621.71 1743.96,1627.41 1737.68,1632.12L1737.12,1632.45L1736.52,1632.67L1735.89,1632.77L1735.24,1632.74C1735.24,1632.74 1717.02,1630.17 1701.03,1624.64C1697.48,1623.41 1695.32,1620.99 1692.67,1618.33C1689.82,1615.49 1685.61,1611.3 1674,1611.3C1668.02,1611.3 1663.06,1611.92 1659.61,1613.45C1657.19,1614.53 1655.65,1616.05 1655.65,1618.4C1655.65,1618.72 1655.95,1618.97 1656.22,1619.29C1656.94,1620.13 1657.97,1620.96 1659.16,1621.82C1663.58,1625 1669.95,1628.43 1674.29,1632.62C1676.93,1635.17 1678.28,1637.36 1679.74,1639.91C1681.62,1643.17 1683.76,1647.09 1690.33,1653.67C1691.92,1655.25 1695.91,1657.47 1700.67,1659.9C1712.61,1666.02 1729.27,1672.95 1729.27,1672.95C1729.71,1673.14 1730.06,1673.49 1730.24,1673.93C1730.42,1674.37 1730.42,1674.87 1730.24,1675.31L1729.09,1678.08C1728.9,1678.52 1728.55,1678.87 1728.11,1679.05C1727.67,1679.23 1727.17,1679.23 1726.73,1679.05C1726.73,1679.05 1709.8,1671.99 1697.66,1665.78C1692.1,1662.93 1687.52,1660.18 1685.67,1658.33C1685.14,1657.81 1684.65,1657.3 1684.17,1656.81C1683.8,1656.81 1683.3,1656.82 1682.69,1656.82C1675.95,1656.82 1655.5,1656.57 1633.55,1653.67C1624.77,1652.52 1617.46,1646.92 1610.35,1641.54C1603.81,1636.6 1597.48,1631.8 1590,1631.8C1587.36,1631.8 1584.68,1632.26 1582.66,1633.4C1580.98,1634.35 1579.82,1635.82 1579.8,1637.96ZM1664.58,1607.16C1659.45,1600.77 1638,1573.66 1638,1567C1638,1563.43 1642.43,1562 1646,1562C1655.54,1562 1678.27,1598.9 1690,1605C1692.33,1606.21 1695.06,1607.82 1697.79,1609.51L1713.49,1621.12C1713.94,1621.45 1714.55,1621.51 1715.05,1621.26C1722.6,1617.5 1731.26,1615.56 1741.19,1613.91L1754.7,1615.41C1747.59,1619.26 1740.69,1623.9 1735.3,1627.9C1732.07,1627.41 1716.47,1624.9 1702.6,1620.1C1699.78,1619.13 1698.17,1617.05 1696.06,1614.94C1692.69,1611.57 1687.75,1606.5 1674,1606.5C1670.53,1606.5 1667.37,1606.72 1664.58,1607.16ZM1709.5,1620.41C1704.98,1617.06 1696.78,1611 1696.78,1611C1694.11,1609.35 1691.45,1607.78 1689.17,1606.6C1685.75,1604.82 1681.4,1600.57 1676.74,1595.31C1670.04,1587.75 1662.59,1578.1 1656.19,1571.38C1653.56,1568.61 1651.12,1566.35 1648.99,1565C1647.86,1564.27 1646.87,1563.8 1646,1563.8C1644.49,1563.8 1642.8,1564.08 1641.49,1564.76C1640.56,1565.24 1639.8,1565.93 1639.8,1567C1639.8,1567.63 1640.09,1568.48 1640.52,1569.52C1641.32,1571.42 1642.65,1573.81 1644.3,1576.45C1650.54,1586.48 1661.19,1600.03 1665.34,1605.23C1667.95,1604.87 1670.85,1604.7 1674,1604.7C1688.55,1604.7 1693.77,1610.1 1697.33,1613.67C1699.24,1615.57 1700.64,1617.52 1703.19,1618.4C1705.27,1619.12 1707.39,1619.79 1709.5,1620.41ZM1716.86,1622.38C1724.96,1624.37 1732,1625.56 1734.84,1626.01C1738.92,1623 1743.82,1619.67 1748.99,1616.59C1748.99,1616.59 1741.24,1615.73 1741.24,1615.73C1732.04,1617.26 1723.96,1619.04 1716.86,1622.38ZM1696.17,1604.58C1694.41,1602.82 1692.92,1601.22 1692,1600C1684.59,1590.15 1673,1579.25 1673,1576C1673,1573.75 1676.64,1572 1681,1572C1689.36,1572 1699.66,1586.79 1703,1590C1706.03,1592.91 1728.2,1609.46 1732.3,1612.52C1725.81,1613.89 1719.91,1615.61 1714.54,1618.17C1714.54,1618.16 1703.28,1609.83 1696.17,1604.58ZM1714.75,1616.08C1718.89,1614.21 1723.33,1612.79 1728.1,1611.62C1720.59,1606.01 1704.32,1593.77 1701.75,1591.3C1699.76,1589.38 1695.27,1583.3 1690.19,1578.75C1687.17,1576.04 1683.98,1573.8 1681,1573.8C1679.13,1573.8 1677.41,1574.15 1676.16,1574.77C1675.76,1574.97 1675.41,1575.19 1675.15,1575.44C1674.97,1575.62 1674.8,1575.79 1674.8,1576C1674.8,1576.27 1675.03,1576.6 1675.28,1577.04C1675.72,1577.79 1676.35,1578.66 1677.12,1579.65C1681,1584.6 1688.25,1592.02 1693.44,1598.92C1694.3,1600.07 1695.7,1601.56 1697.35,1603.21C1703.27,1607.59 1712.01,1614.05 1714.75,1616.08Z" style="fill:rgb(176,176,176);"/>
                </g>
            </g>
        </g>
    </g>
    <defs>
        <radialGradient id="_Radial2" cx="0" cy="0" r="1" gradientUnits="userSpaceOnUse" gradientTransform="matrix(194.973,0,0,194.973,1750,1494.97)"><stop offset="0" style="stop-color:white;stop-opacity:0"/><stop offset="0.65" style="stop-color:rgb(244,244,244);stop-opacity:0.01"/><stop offset="1" style="stop-color:rgb(179,179,179);stop-opacity:0.07"/></radialGradient>
        <radialGradient id="_Radial3" cx="0" cy="0" r="1" gradientUnits="userSpaceOnUse" gradientTransform="matrix(194.973,0,0,194.973,1750,1494.97)"><stop offset="0" style="stop-color:white;stop-opacity:0"/><stop offset="0.61" style="stop-color:rgb(242,242,242);stop-opacity:0.01"/><stop offset="0.81" style="stop-color:rgb(211,211,211);stop-opacity:0.04"/><stop offset="1" style="stop-color:rgb(179,179,179);stop-opacity:0.07"/></radialGradient>
        <radialGradient id="_Radial4" cx="0" cy="0" r="1" gradientUnits="userSpaceOnUse" gradientTransform="matrix(194.973,0,-0,194.973,1750,1494.97)"><stop offset="0" style="stop-color:white;stop-opacity:1"/><stop offset="0.27" style="stop-color:white;stop-opacity:0.8"/><stop offset="0.5" style="stop-color:white;stop-opacity:0.1"/><stop offset="1" style="stop-color:rgb(179,179,179);stop-opacity:0.08"/></radialGradient>
        <linearGradient id="_Linear5" x1="0" y1="0" x2="1" y2="0" gradientUnits="userSpaceOnUse" gradientTransform="matrix(-76.6788,-152.644,152.644,-76.6788,1869.13,1762)"><stop offset="0" style="stop-color:rgb(238,238,238);stop-opacity:1"/><stop offset="0.54" style="stop-color:rgb(211,211,211);stop-opacity:1"/><stop offset="1" style="stop-color:rgb(222,222,222);stop-opacity:1"/></linearGradient>
    </defs>
</svg>
