<?xml version="1.0" encoding="UTF-8" standalone="no"?>
<!DOCTYPE svg PUBLIC "-//W3C//DTD SVG 1.1//EN" "http://www.w3.org/Graphics/SVG/1.1/DTD/svg11.dtd">
<svg width="100%" height="100%" viewBox="0 0 401 401" version="1.1" xmlns="http://www.w3.org/2000/svg" xmlns:xlink="http://www.w3.org/1999/xlink" xml:space="preserve" xmlns:serif="http://www.serif.com/" style="fill-rule:evenodd;clip-rule:evenodd;stroke-linejoin:round;stroke-miterlimit:2;">
    <g transform="matrix(1,0,0,1,-449,0)">
        <g id="hexagon" transform="matrix(1.93553,0,0,1.93553,-62776.2,-35311.5)">
            <rect x="32665.8" y="18244.1" width="206.662" height="206.662" style="fill:none;"/>
            <g transform="matrix(3.81658e-17,0.623295,-0.632751,3.87448e-17,32895.4,17942.3)">
                <path d="M627.983,47.228c13.287,-7.672 29.747,-7.672 43.034,0c27.083,15.636 73.297,42.318 100.15,57.822c13.03,7.523 21.036,21.286 21.036,36.163l0,116.743c0,14.877 -8.006,28.64 -21.036,36.163c-26.853,15.504 -73.067,42.186 -100.15,57.822c-13.287,7.672 -29.747,7.672 -43.034,-0c-27.083,-15.636 -73.297,-42.318 -100.15,-57.822c-13.03,-7.523 -21.036,-21.286 -21.036,-36.163l-0,-116.743c-0,-14.877 8.006,-28.64 21.036,-36.163c26.853,-15.504 73.067,-42.186 100.15,-57.822Z"/>
            </g>
        </g>
    </g>
</svg>
